<svg xmlns="http://www.w3.org/2000/svg" xmlns:xlink="http://www.w3.org/1999/xlink" width="500" zoomAndPan="magnify" viewBox="0 0 375 374.999991" height="500" preserveAspectRatio="xMidYMid meet" version="1.0"><defs><clipPath id="3da213a333"><path d="M 86 235 L 289 235 L 289 349 L 86 349 Z M 86 235 " clip-rule="nonzero"/></clipPath><clipPath id="bca4adf958"><path d="M 133.902344 385.242188 L 70.867188 241.722656 L 248.03125 163.910156 L 311.066406 307.425781 Z M 133.902344 385.242188 " clip-rule="nonzero"/></clipPath><clipPath id="219db1e438"><path d="M 133.902344 385.242188 L 70.867188 241.722656 L 248.03125 163.910156 L 311.066406 307.425781 Z M 133.902344 385.242188 " clip-rule="nonzero"/></clipPath><clipPath id="a83a4b181e"><path d="M 86.808594 235.25 L 147.722656 241.960938 C 145.28125 264.101562 161.3125 284.097656 183.453125 286.539062 C 205.59375 288.980469 225.589844 272.949219 228.03125 250.808594 L 288.945312 257.519531 C 285.96875 284.519531 272.660156 308.734375 251.46875 325.726562 C 230.277344 342.710938 203.734375 350.429688 176.742188 347.453125 C 149.742188 344.476562 125.519531 331.167969 108.535156 309.976562 C 91.550781 288.785156 83.832031 262.242188 86.808594 235.25 Z M 86.808594 235.25 " clip-rule="nonzero"/></clipPath></defs><path fill="#006aa2" d="M 164.113281 13.5 L 15.042969 162.570312 C 0.921875 176.691406 0.921875 199.628906 15.042969 213.75 C 29.164062 227.871094 52.101562 227.871094 66.222656 213.75 L 189.738281 90.300781 L 313.25 213.75 C 327.371094 227.871094 350.308594 227.871094 364.429688 213.75 C 371.265625 206.914062 375.035156 197.839844 375.035156 188.191406 C 375.035156 178.542969 371.265625 169.40625 364.429688 162.570312 L 215.359375 13.5 C 201.238281 -0.621094 178.234375 -0.621094 164.113281 13.5 Z M 164.113281 13.5 " fill-opacity="1" fill-rule="nonzero"/><path fill="#eab308" d="M 164.113281 148.90625 L 15.042969 297.976562 C 0.921875 312.097656 0.921875 335.039062 15.042969 349.160156 C 29.164062 363.28125 52.101562 363.28125 66.222656 349.160156 L 189.738281 225.710938 L 313.25 349.160156 C 327.371094 363.28125 350.308594 363.28125 364.429688 349.160156 C 371.265625 342.320312 375.035156 333.25 375.035156 323.601562 C 375.035156 313.953125 371.265625 304.816406 364.429688 297.976562 L 215.359375 148.90625 C 201.238281 134.785156 178.234375 134.785156 164.113281 148.90625 Z M 164.113281 148.90625 " fill-opacity="1" fill-rule="nonzero"/><g clip-path="url(#3da213a333)"><g clip-path="url(#bca4adf958)"><g clip-path="url(#219db1e438)"><g clip-path="url(#a83a4b181e)"><path fill="#eab308" d="M 117.003906 425.949219 L 331.351562 331.800781 L 255.773438 159.730469 L 41.425781 253.875 Z M 117.003906 425.949219 " fill-opacity="1" fill-rule="nonzero"/></g></g></g></g></svg>